<?xml version="1.0" standalone="no"?>
<!DOCTYPE svg PUBLIC "-//W3C//DTD SVG 20010904//EN"
 "http://www.w3.org/TR/2001/REC-SVG-20010904/DTD/svg10.dtd">
<svg version="1.0" xmlns="http://www.w3.org/2000/svg"
 width="512.000000pt" height="512.000000pt" viewBox="0 0 512.000000 512.000000"
 preserveAspectRatio="xMidYMid meet">
<metadata>
Created by potrace 1.14, written by Peter Selinger 2001-2017
</metadata>
<g transform="translate(0.000000,512.000000) scale(0.100000,-0.100000)"
fill="#000000" stroke="none">
<path d="M2803 4490 c-89 -19 -183 -82 -232 -158 -94 -146 -71 -333 55 -452
80 -76 129 -95 244 -95 82 0 103 4 151 26 79 37 133 90 171 167 30 61 33 74
33 162 0 116 -21 167 -105 251 -81 82 -208 122 -317 99z"/>
<path d="M374 3743 l-66 -95 90 -92 c49 -50 96 -102 103 -116 11 -20 15 -174
19 -810 l5 -785 38 -78 c83 -169 249 -277 427 -277 129 0 241 45 341 138 108
100 155 204 166 369 l6 93 -120 0 -120 0 -6 -79 c-8 -125 -55 -204 -149 -252
-118 -60 -266 -14 -324 101 l-23 45 -1 733 c0 629 -2 737 -15 762 l-15 28 63
-25 c58 -25 77 -27 287 -34 193 -6 239 -11 322 -32 118 -31 242 -88 341 -156
138 -96 204 -177 466 -570 264 -395 331 -477 491 -598 108 -81 314 -183 449
-223 57 -16 111 -30 120 -30 9 0 44 44 84 106 37 59 66 107 65 108 -2 1 -43
10 -93 20 -247 49 -455 162 -623 340 -51 54 -143 183 -306 429 -255 386 -327
474 -485 593 -95 71 -270 162 -373 193 -139 42 -221 53 -433 60 l-210 7 -85
43 c-47 24 -149 74 -227 112 l-143 67 -66 -95z"/>
<path d="M3178 3676 c-52 -14 -106 -51 -137 -95 -28 -39 -44 -107 -87 -381
-20 -129 -40 -238 -43 -242 -4 -4 -76 -22 -161 -39 -85 -18 -158 -35 -163 -39
-6 -6 65 -375 75 -385 5 -5 478 93 510 106 39 16 95 81 107 123 5 20 20 102
32 181 12 80 25 145 29 145 7 0 413 -514 455 -576 28 -42 32 -82 10 -123 -7
-15 -112 -178 -231 -362 -227 -350 -253 -396 -254 -443 0 -23 162 -867 175
-912 2 -8 64 1 196 27 106 21 194 40 196 42 1 2 -31 172 -72 378 -42 206 -77
385 -78 399 -1 17 62 121 207 345 115 176 219 343 232 371 71 161 51 363 -51
506 -21 29 -193 250 -382 491 -302 384 -350 440 -391 461 -61 30 -116 37 -174
22z"/>
<path d="M4108 1857 c-37 -56 -70 -110 -74 -119 -6 -17 13 -18 302 -18 170 0
346 -3 392 -7 l82 -6 0 120 0 120 -77 7 c-42 3 -184 6 -317 6 l-241 0 -67
-103z"/>
</g>
</svg>
