<?xml version="1.0" standalone="no"?>
<!DOCTYPE svg PUBLIC "-//W3C//DTD SVG 20010904//EN"
 "http://www.w3.org/TR/2001/REC-SVG-20010904/DTD/svg10.dtd">
<svg version="1.0" xmlns="http://www.w3.org/2000/svg"
 width="300.000000pt" height="300.000000pt" viewBox="0 0 300.000000 300.000000"
 preserveAspectRatio="xMidYMid meet">
<metadata>
Created by potrace 1.15, written by Peter Selinger 2001-2017
</metadata>
<g transform="translate(0.000000,300.000000) scale(0.100000,-0.100000)"
fill="#000000" stroke="none">
<path d="M1297 2230 c-268 -50 -500 -153 -728 -321 -101 -75 -288 -256 -372
-359 -78 -96 -197 -279 -197 -301 0 -21 115 -120 220 -191 41 -27 143 -83 225
-123 194 -95 483 -200 502 -182 3 4 -10 19 -28 34 -206 168 -419 445 -419 544
0 51 155 221 333 363 l47 39 -25 -54 c-64 -138 -72 -322 -20 -452 26 -63 45
-86 45 -52 0 22 46 112 85 165 18 25 43 74 55 110 26 79 66 146 132 222 l49
56 -57 12 c-31 7 -98 10 -149 8 -51 -1 -88 1 -82 5 59 40 90 48 155 42 37 -4
91 -13 120 -21 l53 -15 67 44 c37 25 95 59 130 76 65 33 67 36 29 79 -17 18
-18 22 -5 22 9 0 23 2 31 5 10 4 25 -15 50 -62 56 -109 78 -192 86 -338 l7
-130 20 42 c18 40 34 56 34 33 0 -33 -94 -155 -112 -144 -4 3 -8 16 -8 28 0
47 -77 179 -150 259 -55 59 -67 77 -52 77 32 0 105 29 129 52 22 21 41 83 30
95 -10 9 -167 -75 -239 -128 -160 -119 -252 -276 -265 -452 -5 -67 -3 -80 13
-98 27 -30 80 -55 212 -99 127 -43 163 -66 213 -135 29 -40 68 -64 55 -32 -16
39 -37 119 -32 124 8 8 41 -22 87 -80 l39 -49 60 58 c95 91 164 214 190 339
15 68 18 211 8 300 l-7 60 13 -50 12 -50 21 56 c40 105 40 122 -2 174 -43 52
-142 130 -198 155 -36 16 -37 18 -15 24 37 10 331 7 436 -4 264 -29 595 -115
805 -209 102 -46 76 -15 -49 57 -343 198 -661 319 -974 372 -156 27 -470 27
-613 0z m445 -297 c10 -9 18 -22 18 -28 0 -7 14 -15 30 -19 34 -6 45 -25 36
-60 -8 -33 -42 -43 -67 -20 -13 12 -32 17 -54 15 -61 -5 -95 56 -59 107 18 27
69 30 96 5z"/>
<path d="M1526 1803 c-21 -28 -89 -62 -126 -63 -24 -1 -23 -2 15 -36 22 -19
69 -58 105 -85 l65 -51 3 49 c3 43 -20 170 -37 200 -4 7 -13 2 -25 -14z"/>
<path d="M1960 1697 c0 -13 -15 -55 -34 -93 -28 -58 -35 -84 -39 -159 -6 -91
-33 -198 -69 -269 l-20 -39 55 5 c29 2 76 15 103 29 45 22 50 29 68 84 13 43
19 92 19 175 1 102 -2 124 -29 199 -29 84 -54 116 -54 68z"/>
<path d="M953 1238 c-17 -29 -37 -72 -44 -95 l-12 -41 49 -56 c45 -53 123
-119 186 -159 78 -49 268 -91 268 -60 0 10 -7 13 -22 9 -13 -3 -18 -3 -11 0 8
4 0 24 -26 62 -22 31 -52 88 -68 126 -28 67 -31 70 -79 86 -78 27 -172 78
-184 100 -6 11 -12 34 -13 50 -1 17 -4 30 -7 30 -3 0 -20 -24 -37 -52z"/>
<path d="M1917 1120 c-16 -5 -54 -10 -85 -11 -54 -3 -58 -5 -93 -49 -20 -25
-58 -65 -85 -89 -46 -40 -50 -42 -62 -24 -51 73 -84 113 -92 113 -5 0 0 -25
11 -57 24 -71 24 -73 -3 -73 -15 0 -38 18 -67 51 -40 47 -123 100 -136 87 -10
-9 35 -101 75 -154 21 -29 56 -62 76 -75 34 -21 42 -22 100 -12 131 23 278
119 369 243 47 64 47 66 -8 50z"/>
</g>
</svg>
